<svg width="26" height="26" viewBox="0 0 26 26" fill="none" xmlns="http://www.w3.org/2000/svg">
<g clip-path="url(#clip0_51389_688)">
<path d="M2.15012 14.5208C2.73008 14.5234 2.70825 14.5246 2.67754 13.9495C2.63463 13.1462 2.74185 12.3529 2.9251 11.5702C3.22922 10.2712 3.78648 9.09842 4.65278 8.07651C4.85544 7.83746 4.81615 7.52472 4.83513 7.24491C4.9276 5.88225 5.14012 4.54582 5.57786 3.24703C5.79113 2.61423 5.99841 1.98607 6.41513 1.4469C6.60724 1.19834 6.76673 1.1146 7.11361 1.22202C8.5962 1.6811 9.83259 2.53153 10.9891 3.52657C11.1812 3.69186 11.3168 3.9056 11.4772 4.09821C11.6544 4.31086 11.835 4.41738 12.1487 4.28335C13.0314 3.90629 13.952 3.67192 14.9263 3.71687C15.7535 3.75503 16.4587 4.08674 17.0652 4.62602C17.7025 5.19271 18.1715 5.86814 18.3661 6.7224C18.4786 7.21632 19.0937 7.61326 19.5984 7.63026C20.6116 7.66438 21.6124 7.77609 22.5976 8.0524C23.5151 8.30969 24.3984 8.62311 25.1925 9.15727C25.5149 9.37413 25.5776 9.58467 25.4096 9.92143C25.0397 10.663 24.6657 11.4051 24.1736 12.0741C23.5351 12.9423 22.7837 13.7027 21.8527 14.2598C21.558 14.4362 21.4085 14.6544 21.381 14.9938C21.3101 15.868 20.9803 16.6676 20.6702 17.4782C20.0665 19.0568 18.887 20.1581 17.6578 21.2239C17.4324 21.4193 17.391 21.7085 17.2327 21.9373C17.1597 22.0429 17.3283 22.0737 17.3994 22.1243C17.9246 22.4986 18.2844 23.0149 18.5578 23.5788C18.7531 23.9818 18.6057 24.3251 18.2371 24.5447C17.8105 24.8025 17.3008 24.8858 16.8143 24.7772C15.5972 24.5258 14.5066 24.0243 13.6276 23.121C13.5171 23.0075 13.3942 23.0104 13.2548 23.0317C11.9849 23.226 10.7407 23.1612 9.51985 22.7159C9.18711 22.5945 8.83408 22.5249 8.51566 22.3594C8.41086 22.305 8.33764 22.3428 8.25764 22.4141C7.03975 23.5006 5.58642 23.7036 4.03811 23.5162C3.83429 23.4915 3.6311 23.3909 3.44697 23.2901C3.14232 23.1233 3.03999 22.8032 3.12857 22.4362C3.2797 21.8102 3.76769 21.4678 4.24021 21.1171C4.58303 20.8627 4.97347 20.6902 5.36995 20.5364C5.53328 20.4731 5.59584 20.4261 5.43615 20.2693C4.71589 19.562 4.08109 18.7882 3.64576 17.8675C3.62092 17.8162 3.58499 17.7711 3.54056 17.7353C3.49613 17.6996 3.44431 17.6742 3.38886 17.661C2.37394 17.3259 1.47223 16.7152 0.784542 15.897C0.326309 15.3626 0.42113 14.9668 1.07196 14.6928C1.41797 14.5471 1.7803 14.5126 2.15012 14.5208Z" fill="currentColor"/>
</g>
<defs>
<clipPath id="clip0_51389_688">
<rect width="25" height="25" fill="white" transform="translate(0.5 0.5)"/>
</clipPath>
</defs>
</svg>
