<svg width="26" height="26" viewBox="0 0 26 26" fill="none" xmlns="http://www.w3.org/2000/svg">
<g clip-path="url(#clip0_51389_690)">
<path d="M20.5569 12.4573C20.33 12.2905 20.1371 12.2553 19.9608 12.1861C19.8692 12.1554 19.7847 12.1068 19.7121 12.0431C19.6395 11.9794 19.5804 11.9019 19.5381 11.815C19.374 11.4661 19.2251 11.1078 19.0317 10.7757C18.8846 10.5232 18.8983 10.2979 18.9822 10.0361C19.125 9.59107 19.1151 9.5309 18.6586 9.51251C17.9581 9.4843 17.6196 8.94572 17.1585 8.57577C16.8918 8.36176 16.6558 8.12286 16.6664 7.7398C16.6711 7.56797 16.5574 7.53111 16.44 7.60812C16.0648 7.85437 15.7691 7.7129 15.4892 7.44445C15.371 7.33109 15.2644 7.35109 15.1321 7.44191C14.7401 7.7112 14.2639 7.80976 13.8564 8.05306C13.7173 8.13612 13.5754 8.02647 13.4382 7.99536C13.2833 7.96021 13.1823 7.97831 13.2046 8.16301C13.2404 8.45879 13.0773 8.66333 12.8866 8.8436C12.4351 9.27047 12.0358 9.73418 11.7353 10.2828C11.6595 10.4239 11.554 10.5469 11.4261 10.6433C11.2982 10.7397 11.151 10.8072 10.9945 10.8413C10.6865 10.9155 10.3946 11.0546 10.0739 11.0773C9.94503 11.0864 9.92187 11.1674 9.90759 11.2715C9.84724 11.7109 9.7816 12.1506 9.79916 12.5953C9.81435 12.9799 9.67659 13.2554 9.32794 13.4474C8.38358 13.9675 7.85859 14.8169 7.53635 15.8115C7.45136 16.0804 7.28058 16.314 7.05017 16.4766C6.62775 16.7806 6.19163 17.0656 5.76903 17.3694C5.52331 17.546 5.25206 17.5149 4.98774 17.4818C4.70096 17.4435 4.4114 17.4301 4.12232 17.4418C3.97237 17.4557 3.82159 17.4263 3.68778 17.3572C3.55397 17.2882 3.44272 17.1822 3.36717 17.052C3.27554 16.9083 3.1687 16.7937 2.98993 16.7672C2.95107 16.7631 2.91429 16.7476 2.88425 16.7226C2.36022 16.2021 1.74904 15.7642 1.343 15.1316C1.11907 14.7827 1.12466 14.3971 1.23676 14.0146C1.39165 13.4861 1.42375 12.9737 1.11707 12.483C1.059 12.39 1.0938 12.3032 1.15334 12.2154C1.23424 12.0962 1.29571 11.9639 1.37377 11.8425C1.50029 11.6458 1.51333 11.4737 1.31089 11.3117C1.19387 11.2181 1.18761 11.0812 1.22273 10.9395C1.34101 10.4622 1.45316 9.98345 1.57381 9.5068C1.61942 9.33852 1.69781 9.18089 1.80447 9.04297C2.02906 8.74109 2.26239 8.4451 2.47379 8.13421C2.68155 7.83048 2.96595 7.58711 3.29814 7.42879C3.51221 7.32304 3.62261 7.16725 3.64791 6.91156C3.73152 6.06663 3.74804 5.21837 3.79246 4.37195C3.84396 3.39048 3.95291 2.41132 3.91995 1.42516C3.90828 1.07597 4.27744 0.768263 4.61953 0.800677C4.79766 0.817554 4.85902 0.941564 4.87504 1.09988C4.93132 1.65611 4.97293 2.21427 5.04638 2.76822C5.15891 3.61698 5.23109 4.46983 5.35911 5.33247C5.42241 5.16961 5.50587 5.01143 5.54487 4.84294C5.62986 4.47575 5.86513 4.23543 6.1666 4.04379C6.53254 3.81117 6.91067 3.59646 7.26639 3.34934C7.6926 3.05324 8.15563 3.01372 8.64846 3.07454C9.25764 3.14971 9.25875 3.14545 9.51293 2.60739C9.57059 2.48534 9.63064 2.36356 9.6763 2.23686C9.81256 1.85873 10.0597 1.60215 10.4476 1.47583C10.9854 1.30073 11.4501 0.98123 11.9223 0.683962C12.1311 0.552515 12.335 0.478483 12.5735 0.505541C13.1404 0.569845 13.7097 0.560784 14.2779 0.557687C14.614 0.555854 14.8498 0.689463 15.0192 0.969018C15.1392 1.16696 15.2685 1.35929 15.3865 1.55835C15.4743 1.70639 15.5916 1.74481 15.7532 1.69835C15.9944 1.62899 16.2391 1.56817 16.4604 1.44679C16.5185 1.41221 16.5857 1.39584 16.6532 1.3998C16.7207 1.40376 16.7855 1.42786 16.8392 1.469C17.277 1.75005 17.7171 2.02755 18.1555 2.30776C18.2718 2.38212 18.3808 2.47913 18.4161 2.6092C18.4953 2.90043 18.694 2.8633 18.8882 2.78894C19.2391 2.65464 19.582 2.49941 19.9275 2.35148C20.4692 2.11962 21.0045 2.14747 21.4929 2.46497C22.0027 2.79643 22.4967 3.15416 23.0535 3.40208C23.3445 3.53162 23.5288 3.7352 23.6061 4.02756C23.8253 4.85646 24.0327 5.68851 24.2392 6.52071C24.2895 6.72366 24.1903 6.90049 24.0924 7.06641C23.9801 7.26895 23.8524 7.46249 23.7103 7.6453C23.5606 7.82719 23.6006 7.9505 23.7694 8.07479C23.8874 8.17401 24.0105 8.26714 24.1381 8.35379C24.3074 8.45038 24.437 8.60384 24.5039 8.78691C24.6445 9.16566 24.7755 9.54793 24.8967 9.93375C24.9128 9.9942 24.9167 10.0572 24.9083 10.1192C24.8998 10.1812 24.8791 10.2409 24.8473 10.2948C24.5024 10.972 24.1709 11.6561 23.8298 12.3354C23.7818 12.4311 23.8392 12.4797 23.8849 12.5381C24.1165 12.8343 24.3317 13.1461 24.5879 13.4193C24.7839 13.6284 24.8425 13.8507 24.7745 14.1066C24.6508 14.5722 24.5084 15.033 24.3724 15.4953C24.341 15.6021 24.2554 15.6697 24.1811 15.7452C23.8904 16.0402 23.577 16.3148 23.3558 16.6722C23.2741 16.8042 23.1418 16.863 22.9968 16.8954C22.9135 16.9199 22.8274 16.9342 22.7406 16.9378C22.1837 16.9216 21.8212 17.1273 21.7702 17.734C21.7549 17.917 21.6008 18.0215 21.4406 18.0658C20.9243 18.2085 20.4763 18.5676 19.9087 18.5473C19.8032 18.5436 19.7496 18.6084 19.7541 18.7133C19.7633 18.9281 19.6568 19.1024 19.5584 19.279C19.3052 19.7337 18.9698 20.0337 18.3962 19.9397C18.1249 19.8952 17.8617 19.8835 17.8143 20.2854C17.7994 20.4122 17.6351 20.5283 17.5259 20.6359C17.2651 20.8928 17.0364 21.2496 16.7208 21.3666C16.3317 21.5109 16.3237 21.7916 16.2272 22.0708C16.2021 22.1435 16.1864 22.2283 16.1384 22.2829C15.7926 22.6763 16.0558 23.0347 16.2024 23.3933C16.2686 23.5553 16.5054 23.4656 16.5953 23.6006C16.7111 23.7747 16.8325 23.6849 16.9875 23.6711C17.6428 23.6127 18.3353 23.3955 18.8986 23.9592C19.016 24.0766 19.0889 24.0514 19.1586 23.9122C19.3408 23.5484 20.1087 23.4794 20.3839 23.8525C20.539 24.0627 20.4739 24.3426 20.4285 24.5826C20.3565 24.9628 19.9049 25.236 19.5337 25.1392C19.3463 25.0903 19.2294 25.1558 19.0657 25.2454C18.6333 25.4921 18.1224 25.5629 17.6392 25.4431C17.3603 25.3727 17.0944 25.25 16.8242 25.1467C16.7443 25.1161 16.6508 25.0892 16.6139 25.0036C16.5246 24.7963 16.4376 24.7648 16.1857 24.8325C15.9212 24.9036 15.6278 24.6966 15.4432 24.4784C15.3326 24.3477 15.2298 24.303 15.0783 24.2545C14.7817 24.1596 14.4487 24.0652 14.4619 23.6414C14.465 23.5398 14.4138 23.496 14.3148 23.5432C14.1778 23.6086 14.0443 23.5676 13.9221 23.5159C13.5071 23.3336 13.1103 23.1123 12.7371 22.8548C12.6262 22.7742 12.5509 22.6536 12.5273 22.5185C12.5007 22.3665 12.4642 22.2164 12.4183 22.0691C12.2814 21.7035 12.3306 21.3777 12.5679 21.0668C12.6379 20.9624 12.6877 20.8458 12.7147 20.7231C12.8264 20.3136 13.0111 19.9738 13.4498 19.8323C13.6664 19.7625 13.7273 19.6009 13.7026 19.3761C13.6841 19.146 13.68 18.9149 13.6902 18.6843C13.6904 18.6168 13.7102 18.5507 13.7473 18.4943C13.9929 18.1608 14.2443 17.8315 14.4968 17.5032C14.5413 17.4392 14.6039 17.3901 14.6765 17.362C14.7492 17.3339 14.8285 17.3283 14.9044 17.3457C14.9811 17.3549 15.0585 17.3573 15.1356 17.3528C15.5811 17.3539 15.5812 17.3536 15.6313 16.9231C15.6349 16.8654 15.6416 16.8079 15.6513 16.7509C15.7364 16.3747 16.7622 15.6474 17.1472 15.6882C17.6008 15.7364 17.5541 15.7009 17.7761 15.3205C18.1057 14.7561 18.6387 14.3552 19.1179 13.9173C19.1654 13.8739 19.265 13.8781 19.3407 13.8769C19.3672 13.8796 19.394 13.8769 19.4194 13.869C19.4448 13.861 19.4684 13.8481 19.4887 13.8308C19.509 13.8136 19.5256 13.7924 19.5376 13.7686C19.5495 13.7448 19.5565 13.7188 19.5581 13.6923C19.655 13.1238 19.9244 12.6822 20.5569 12.4573Z" fill="currentColor"/>
</g>
<defs>
<clipPath id="clip0_51389_690">
<rect width="25" height="25" fill="white" transform="translate(0.5 0.5)"/>
</clipPath>
</defs>
</svg>
